<svg width="37" height="37" viewBox="0 0 37 37" fill="none" xmlns="http://www.w3.org/2000/svg">
<path d="M25.2419 31.5191L21.1749 22.1855L26.6057 19.8191C27.1932 19.561 27.4621 18.8769 27.2075 18.2879L25.9946 15.5044C25.6089 14.6562 24.7556 14.1187 23.8239 14.1373L21.2742 8.1204C20.904 7.26673 20.2091 6.59559 19.3431 6.25524C18.4771 5.91489 17.5112 5.93334 16.6589 6.30651L10.6078 8.94316C9.75417 9.31337 9.08303 10.0082 8.74268 10.8742C8.40233 11.7402 8.42078 12.7061 8.79395 13.5585L11.3437 19.5754C10.7017 20.2547 10.5269 21.2516 10.8997 22.1088L12.1125 24.8923C12.3706 25.4798 13.0547 25.7487 13.6437 25.4941L19.0745 23.1277L23.1415 32.4614C23.2632 32.7485 23.4948 32.9749 23.7845 33.0902C24.2245 33.261 24.724 33.1499 25.0501 32.8088C25.3762 32.4678 25.4648 31.9638 25.2745 31.5319L25.2419 31.5191Z" fill="#FF013E"/>
</svg>
