<svg width="62" height="63" viewBox="0 0 62 63" fill="none" xmlns="http://www.w3.org/2000/svg">
<path fill-rule="evenodd" clip-rule="evenodd" d="M34.8138 27.578C34.8138 29.7144 33.0819 31.4463 30.9456 31.4463C28.8092 31.4463 27.0773 29.7144 27.0773 27.578C27.0773 25.4416 28.8092 23.7097 30.9456 23.7097C33.0819 23.7097 34.8138 25.4416 34.8138 27.578ZM37.3927 27.578C37.3927 31.1386 34.5062 34.0251 30.9456 34.0251C27.3849 34.0251 24.4984 31.1386 24.4984 27.578C24.4984 24.0173 27.3849 21.1309 30.9456 21.1309C34.5062 21.1309 37.3927 24.0173 37.3927 27.578ZM24.5303 34.3994C24.7086 34.2617 24.9247 34.1768 25.1498 34.1692C25.8088 34.1469 26.1435 34.3005 26.4009 34.5915C26.8975 35.153 26.5712 36.0647 25.987 36.5345C24.9131 37.3982 24.0827 38.5346 23.6039 39.8273H38.2866C37.8079 38.5348 36.9778 37.3987 35.9042 36.5351C35.3201 36.0652 34.9939 35.1533 35.4906 34.5917C35.7481 34.3006 36.0826 34.1471 36.7416 34.1696C36.9666 34.1773 37.1825 34.2622 37.3608 34.3998C39.4513 36.0143 40.894 38.3999 41.2435 41.1195C41.3343 41.8258 40.7483 42.4061 40.0361 42.4061H21.8544C21.1422 42.4061 20.5562 41.8258 20.647 41.1195C20.9965 38.3996 22.4395 36.0139 24.5303 34.3994Z" fill="white"/>
</svg>
