<svg width="62" height="63" viewBox="0 0 62 63" fill="none" xmlns="http://www.w3.org/2000/svg">
<path fill-rule="evenodd" clip-rule="evenodd" d="M19.3408 23.7098C19.3408 22.9977 19.9181 22.4204 20.6302 22.4204H24.4985C25.0705 22.4204 25.5742 22.7972 25.7356 23.346L28.6869 33.3805H37.6755L38.9649 28.2228H30.9457C30.2335 28.2228 29.6562 27.6455 29.6562 26.9334C29.6562 26.2213 30.2335 25.644 30.9457 25.644H40.6164C41.0134 25.644 41.3883 25.8269 41.6327 26.1399C41.877 26.4528 41.9636 26.8609 41.8673 27.2461L39.9331 34.9827C39.7896 35.5567 39.2739 35.9594 38.6822 35.9594H27.7221C27.1501 35.9594 26.6465 35.5826 26.4851 35.0338L23.5337 24.9993H20.6302C19.9181 24.9993 19.3408 24.422 19.3408 23.7098ZM29.6562 39.183C29.6562 40.6072 28.5016 41.7618 27.0774 41.7618C25.6531 41.7618 24.4985 40.6072 24.4985 39.183C24.4985 37.7587 25.6531 36.6041 27.0774 36.6041C28.5016 36.6041 29.6562 37.7587 29.6562 39.183ZM38.6822 41.7618C40.1065 41.7618 41.2611 40.6072 41.2611 39.183C41.2611 37.7587 40.1065 36.6041 38.6822 36.6041C37.258 36.6041 36.1034 37.7587 36.1034 39.183C36.1034 40.6072 37.258 41.7618 38.6822 41.7618Z" fill="white"/>
</svg>
