<svg width="113" height="23" viewBox="0 0 113 23" fill="none" xmlns="http://www.w3.org/2000/svg">
<g clip-path="url(#clip0_4_366)">
<path d="M21.0196 8.67616C20.9607 8.50271 20.8523 8.35031 20.7078 8.23776C20.5633 8.12522 20.389 8.05746 20.2064 8.04284L14.8653 7.61844L12.5541 2.50226C12.4805 2.33748 12.3608 2.19752 12.2094 2.09928C12.058 2.00104 11.8814 1.94871 11.7009 1.94861C11.5205 1.94851 11.3438 2.00064 11.1923 2.09872C11.0408 2.1968 10.9209 2.33662 10.8472 2.50132L8.53593 7.61844L3.1949 8.04284C3.01545 8.05706 2.8439 8.12267 2.70076 8.23183C2.55763 8.341 2.44897 8.48909 2.38779 8.65838C2.32662 8.82768 2.31551 9.01102 2.3558 9.18647C2.39609 9.36191 2.48608 9.52204 2.61499 9.64768L6.56197 13.4954L5.16605 19.54C5.12367 19.7229 5.13725 19.9144 5.20504 20.0896C5.27284 20.2647 5.39171 20.4155 5.54623 20.5222C5.70075 20.629 5.8838 20.6868 6.0716 20.6882C6.25941 20.6897 6.44331 20.6346 6.59945 20.5302L11.7006 17.1294L16.8018 20.5302C16.9614 20.6362 17.1496 20.6907 17.3411 20.6865C17.5326 20.6823 17.7182 20.6196 17.873 20.5067C18.0278 20.3939 18.1443 20.2363 18.2069 20.0553C18.2695 19.8743 18.2751 19.6784 18.223 19.4941L16.5095 13.4982L20.7591 9.67391C21.0374 9.42283 21.1395 9.03123 21.0196 8.67616Z" fill="#FF013E"/>
<path d="M43.5039 8.67604C43.4451 8.50259 43.3367 8.35019 43.1922 8.23764C43.0476 8.1251 42.8733 8.05733 42.6908 8.04272L37.3497 7.61832L35.0385 2.50214C34.9649 2.33736 34.8452 2.1974 34.6938 2.09916C34.5424 2.00091 34.3658 1.94859 34.1853 1.94849C34.0048 1.94839 33.8282 2.00052 33.6767 2.0986C33.5252 2.19667 33.4053 2.3365 33.3315 2.5012L31.0203 7.61832L25.6793 8.04272C25.4998 8.05694 25.3283 8.12255 25.1851 8.23171C25.042 8.34088 24.9333 8.48896 24.8722 8.65826C24.811 8.82756 24.7999 9.0109 24.8402 9.18635C24.8805 9.36179 24.9705 9.52191 25.0994 9.64756L29.0463 13.4952L27.6504 19.5398C27.608 19.7228 27.6216 19.9143 27.6894 20.0894C27.7572 20.2646 27.8761 20.4153 28.0306 20.5221C28.1851 20.6288 28.3682 20.6867 28.556 20.6881C28.7438 20.6895 28.9277 20.6345 29.0838 20.5301L34.185 17.1293L39.2862 20.5301C39.4458 20.6361 39.634 20.6906 39.8255 20.6864C40.017 20.6822 40.2026 20.6195 40.3574 20.5066C40.5122 20.3938 40.6287 20.2362 40.6913 20.0552C40.7539 19.8741 40.7595 19.6783 40.7074 19.4939L38.9939 13.498L43.2435 9.67379C43.5217 9.42271 43.6239 9.03111 43.5039 8.67604Z" fill="#FF013E"/>
<path d="M65.9873 8.67604C65.9285 8.50259 65.8201 8.35019 65.6756 8.23764C65.531 8.1251 65.3567 8.05733 65.1742 8.04272L59.8331 7.61832L57.5219 2.50214C57.4483 2.33736 57.3286 2.1974 57.1772 2.09916C57.0258 2.00091 56.8492 1.94859 56.6687 1.94849C56.4882 1.94839 56.3116 2.00052 56.1601 2.0986C56.0086 2.19667 55.8887 2.3365 55.8149 2.5012L53.5037 7.61832L48.1627 8.04272C47.9832 8.05694 47.8117 8.12255 47.6685 8.23171C47.5254 8.34088 47.4167 8.48896 47.3556 8.65826C47.2944 8.82756 47.2833 9.0109 47.3236 9.18635C47.3639 9.36179 47.4538 9.52191 47.5828 9.64756L51.5297 13.4952L50.1338 19.5398C50.0914 19.7228 50.105 19.9143 50.1728 20.0894C50.2406 20.2646 50.3595 20.4153 50.514 20.5221C50.6685 20.6288 50.8516 20.6867 51.0394 20.6881C51.2272 20.6895 51.4111 20.6345 51.5672 20.5301L56.6684 17.1293L61.7696 20.5301C61.9292 20.6361 62.1174 20.6906 62.3089 20.6864C62.5004 20.6822 62.686 20.6195 62.8408 20.5066C62.9956 20.3938 63.1121 20.2362 63.1747 20.0552C63.2372 19.8741 63.2429 19.6783 63.1908 19.4939L61.4773 13.498L65.7269 9.67379C66.0051 9.42271 66.1073 9.03111 65.9873 8.67604Z" fill="#FF013E"/>
<path d="M88.4737 8.67604C88.4148 8.50259 88.3064 8.35019 88.1619 8.23764C88.0174 8.1251 87.8431 8.05733 87.6605 8.04272L82.3194 7.61832L80.0082 2.50214C79.9346 2.33736 79.8149 2.1974 79.6635 2.09916C79.5121 2.00091 79.3355 1.94859 79.155 1.94849C78.9746 1.94839 78.7979 2.00052 78.6464 2.0986C78.4949 2.19667 78.375 2.3365 78.3013 2.5012L75.99 7.61832L70.649 8.04272C70.4696 8.05694 70.298 8.12255 70.1549 8.23171C70.0117 8.34088 69.9031 8.48896 69.8419 8.65826C69.7807 8.82756 69.7696 9.0109 69.8099 9.18635C69.8502 9.36179 69.9402 9.52191 70.0691 9.64756L74.0161 13.4952L72.6202 19.5398C72.5778 19.7228 72.5914 19.9143 72.6591 20.0894C72.7269 20.2646 72.8458 20.4153 73.0003 20.5221C73.1549 20.6288 73.3379 20.6867 73.5257 20.6881C73.7135 20.6895 73.8974 20.6345 74.0535 20.5301L79.1547 17.1293L84.2559 20.5301C84.4155 20.6361 84.6037 20.6906 84.7952 20.6864C84.9867 20.6822 85.1724 20.6195 85.3271 20.5066C85.4819 20.3938 85.5984 20.2362 85.661 20.0552C85.7236 19.8741 85.7292 19.6783 85.6771 19.4939L83.9636 13.498L88.2132 9.67379C88.4915 9.42271 88.5936 9.03111 88.4737 8.67604Z" fill="#FF013E"/>
<path d="M96.5004 13.4955L95.1045 19.5401C95.0613 19.7231 95.0742 19.915 95.1417 20.0905C95.2092 20.266 95.3281 20.4172 95.4828 20.5241C95.6375 20.631 95.8208 20.6889 96.0089 20.69C96.197 20.6911 96.381 20.6355 96.5369 20.5304L101.638 17.1296L106.739 20.5304C106.899 20.6363 107.087 20.6909 107.279 20.6867C107.47 20.6825 107.656 20.6197 107.811 20.5069C107.965 20.394 108.082 20.2365 108.144 20.0554C108.207 19.8744 108.213 19.6785 108.161 19.4942L106.447 13.4983L110.697 9.67405C110.833 9.5515 110.93 9.39174 110.976 9.21453C111.022 9.03733 111.016 8.85044 110.957 8.67699C110.898 8.50354 110.79 8.35114 110.645 8.23862C110.501 8.12611 110.326 8.05841 110.144 8.04392L104.803 7.61859L102.492 2.5024C102.418 2.33766 102.298 2.19777 102.147 2.09961C101.995 2.00145 101.819 1.94922 101.638 1.94922C101.458 1.94922 101.281 2.00145 101.13 2.09961C100.978 2.19777 100.858 2.33766 100.785 2.5024L98.4734 7.61859L93.1324 8.04298C92.953 8.0572 92.7814 8.12281 92.6383 8.23198C92.4951 8.34114 92.3865 8.48923 92.3253 8.65853C92.2641 8.82782 92.253 9.01116 92.2933 9.18661C92.3336 9.36205 92.4236 9.52218 92.5525 9.64782L96.5004 13.4955ZM99.1733 9.44265C99.3405 9.42947 99.5011 9.37156 99.6382 9.27496C99.7754 9.17837 99.884 9.04667 99.9527 8.89365L101.638 5.16402L103.324 8.89365C103.392 9.04667 103.501 9.17837 103.638 9.27496C103.775 9.37156 103.936 9.42947 104.103 9.44265L107.824 9.73776L104.76 12.4959C104.494 12.7357 104.388 13.1048 104.485 13.4496L105.659 17.5577L102.159 15.224C102.005 15.1209 101.825 15.0658 101.64 15.0658C101.455 15.0658 101.274 15.1209 101.12 15.224L97.4626 17.6626L98.4463 13.4037C98.4823 13.247 98.4775 13.0838 98.4322 12.9295C98.3869 12.7753 98.3027 12.6353 98.1877 12.523L95.3415 9.74806L99.1733 9.44265Z" fill="#FF013E"/>
</g>
<defs>
<clipPath id="clip0_4_366">
<rect width="112.423" height="22.4846" fill="white" transform="translate(0.457031 0.0769043)"/>
</clipPath>
</defs>
</svg>
